<?xml version="1.0" encoding="UTF-8"?>
<svg id="_图层_1" data-name="图层 1" xmlns="http://www.w3.org/2000/svg" viewBox="0 0 82.65 82.65">
  <rect x="2.5" y="2.5" width="77.65" height="77.65" rx="18.58" ry="18.58" style="fill: none; stroke: #41b25d; stroke-miterlimit: 10; stroke-width: 5px;"/>
  <g>
    <path d="M43.77,28.6H25.45c-.32,2.43-.77,5.89-1.08,7.98,1.59-1.35,3.94-2.47,8.29-2.47,7.79,0,13.64,5.53,13.64,14.8,0,9.77-5.65,16.3-16.41,16.3-9.59,0-15.21-5.88-16.13-13.59h9.19c.84,3.31,3.16,5.29,7.24,5.29s6.84-2.6,6.84-7.4c0-4.18-2.09-7.4-7.11-7.4-4.63,0-6.29,2.27-7.31,4.61l-8.18-1.02c1.05-6.17,3-19.75,3.56-25.54h26.79l-1.02,8.43h.01Z" style="fill: #41b25d;"/>
    <path d="M58.21,64.3v-31.85c-1.92,1.09-5.82,1.98-7.54,2.04v-7.82c4.96-1.23,8.32-4.43,9.87-6.49h6.92v44.12h-9.25Z" style="fill: #41b25d;"/>
  </g>
</svg>