<?xml version="1.0" encoding="UTF-8"?>
<svg id="_图层_2" data-name="图层 2" xmlns="http://www.w3.org/2000/svg" viewBox="0 0 219.21 84.07">
  <g id="_图层_2-2" data-name="图层 2">
    <rect x="2.5" y="2.5" width="214.21" height="77.65" rx="18.58" ry="18.58" style="fill: none; stroke: #22c55e; stroke-miterlimit: 10; stroke-width: 5px;"/>
    <rect x="84.9" y="2.5" width="131.81" height="77.65" rx="18.58" ry="18.58" style="fill: #22c55e;"/>
    <g>
      <path d="M47.31,31.13H28.99c-.32,2.43-.77,5.89-1.08,7.98,1.59-1.35,3.94-2.47,8.29-2.47,7.79,0,13.64,5.53,13.64,14.8,0,9.77-5.65,16.3-16.4,16.3-9.59,0-15.21-5.88-16.13-13.59h9.19c.84,3.31,3.16,5.29,7.24,5.29s6.84-2.6,6.84-7.4c0-4.18-2.09-7.4-7.11-7.4-4.63,0-6.29,2.27-7.31,4.61l-8.18-1.02c1.05-6.17,3-19.75,3.56-25.54h26.79l-1.02,8.43Z" style="fill: #22c55e;"/>
      <path d="M61.75,66.83v-31.85c-1.92,1.09-5.82,1.98-7.54,2.04v-7.82c4.96-1.23,8.32-4.43,9.87-6.49h6.92v44.12h-9.24Z" style="fill: #22c55e;"/>
    </g>
    <g>
      <path d="M103.74,34.31c3.67,6.12,5.16,8.53,6.22,10.19h.07c1.21-1.97,3.36-5.55,6.22-10.19h10.82l-11.41,15.48,11.38,17.04h-11.02c-3.16-5.5-5.14-9.06-6.17-10.93h-.07c-.93,1.71-3.33,5.93-6.22,10.93h-10.65l10.9-15.85-10.83-16.67h10.78Z" style="fill: #fff;"/>
      <path d="M171.68,50.58c0-7.39,.13-15.67,.33-20.57h-.32c-2.2,8.84-6.89,23.26-11.39,36.82h-8.63c-3.42-11.85-8.27-28.28-10.32-36.93h-.32c.4,5.08,.6,13.99,.6,21.42v15.51h-9.24V23.52h15.08c3.65,11.32,7.75,25.51,9.16,31.97h.08c1.15-5.69,6.3-20.87,10.21-31.97h14.54v43.31h-9.78v-16.25Z" style="fill: #fff;"/>
      <path d="M202.83,23.52v43.31h-10.14V23.52h10.14Z" style="fill: #fff;"/>
    </g>
  </g>
</svg>