<?xml version="1.0" encoding="UTF-8"?>
<svg xmlns="http://www.w3.org/2000/svg" viewBox="0 0 243 243">
  <defs>
    <style>
      .cls-1 {
        fill: none;
        stroke: #231815;
        stroke-miterlimit: 10;
        stroke-width: .25px;
      }
    </style>
  </defs>
  <path class="cls-1" d="M156.55,36.09l-1.11,4.14c-.82,3.05,.61,6.25,3.43,7.69,33.89,17.31,52.3,56.47,42.05,94.71-8.81,32.88-36.31,55.73-68.01,60.25-4.76,.68-8.66-3.73-7.42-8.37h0c.69-2.56,2.81-4.51,5.43-4.88,26.58-3.75,49.65-22.91,57.03-50.48,7.99-29.84-4.85-60.33-29.61-76.08-3.82-2.43-8.91-.46-10.08,3.91l-.58,2.15c-.75,2.81,.41,5.76,2.84,7.35,18.85,12.3,28.58,35.72,22.44,58.65-4.32,16.13-15.57,28.55-29.7,34.93-5.11,2.3-10.58-2.47-9.13-7.88l9.34-34.86c1.63-6.07-2.03-12.32-8.16-13.96s-9.79-7.9-8.16-13.96l7.98-29.79,4.01-14.98,4.82-17.98c1.63-6.07-2.03-12.32-8.16-13.96-.76-.2-.05-.22-.81-.27l-1.41-.38C84.82,15.94,37.78,46.59,24.7,95.41c-12.51,46.69,10.19,94.52,51.82,115.31,3.82,1.91,8.42-.11,9.52-4.23l1.11-4.14c.82-3.05-.61-6.25-3.43-7.69-33.89-17.31-52.3-56.47-42.05-94.71,8.81-32.88,36.31-55.74,68.01-60.25,4.76-.68,8.66,3.73,7.42,8.37h0c-.69,2.56-2.81,4.51-5.43,4.88-26.58,3.75-49.65,22.91-57.03,50.48-7.99,29.84,4.85,60.33,29.61,76.08,3.82,2.43,8.91,.46,10.08-3.91l.58-2.15c.75-2.81-.41-5.76-2.84-7.35-18.85-12.3-28.58-35.72-22.44-58.65,4.32-16.13,15.57-28.55,29.7-34.93,5.11-2.3,10.58,2.47,9.13,7.88l-7.95,29.66c-1.63,6.07,2.03,12.32,8.16,13.96s9.79,7.9,8.16,13.96l-9.37,34.99-4.01,14.98-4.82,17.98c-1.63,6.07,2.03,12.32,8.16,13.96,.95,.25,.77,.44,1.7,.46l1.04,.25c48.59,5.82,95.33-24.78,108.36-73.43,12.51-46.69-10.19-94.52-51.82-115.31-3.82-1.91-8.42,.11-9.52,4.23Z"/>
</svg>